
<svg xmlns="http://www.w3.org/2000/svg" xmlns:xlink="http://www.w3.org/1999/xlink" width="400" zoomAndPan="magnify" viewBox="0 0 300 135.000003" height="180" preserveAspectRatio="xMidYMid meet" version="1.0"><defs><g/><clipPath id="id1"><path d="M 1.101562 0 L 298.894531 0 L 298.894531 134.007812 L 1.101562 134.007812 Z M 1.101562 0 " clip-rule="nonzero"/></clipPath><clipPath id="id2"><path d="M 76 94 L 90 94 L 90 113.355469 L 76 113.355469 Z M 76 94 " clip-rule="nonzero"/></clipPath><clipPath id="id3"><path d="M 108 88.042969 L 122 88.042969 L 122 108 L 108 108 Z M 108 88.042969 " clip-rule="nonzero"/></clipPath><clipPath id="id4"><path d="M 150 88.042969 L 164 88.042969 L 164 108 L 150 108 Z M 150 88.042969 " clip-rule="nonzero"/></clipPath><clipPath id="id5"><path d="M 165 88.042969 L 170 88.042969 L 170 93 L 165 93 Z M 165 88.042969 " clip-rule="nonzero"/></clipPath><clipPath id="id6"><path d="M 179 88.042969 L 189 88.042969 L 189 108 L 179 108 Z M 179 88.042969 " clip-rule="nonzero"/></clipPath><clipPath id="id7"><path d="M 205 88.042969 L 220 88.042969 L 220 108 L 205 108 Z M 205 88.042969 " clip-rule="nonzero"/></clipPath></defs><g clip-path="url(#id1)"><path fill="#ffffff" d="M 1.101562 0 L 298.898438 0 L 298.898438 275.460938 L 1.101562 275.460938 Z M 1.101562 0 " fill-opacity="1" fill-rule="nonzero"/><path fill="#ffffff" d="M 1.101562 0 L 298.898438 0 L 298.898438 134.007812 L 1.101562 134.007812 Z M 1.101562 0 " fill-opacity="1" fill-rule="nonzero"/><path fill="#ffffff" d="M 1.101562 0 L 298.898438 0 L 298.898438 134.007812 L 1.101562 134.007812 Z M 1.101562 0 " fill-opacity="1" fill-rule="nonzero"/></g><g fill="#696969" fill-opacity="1"><g transform="translate(15.815121, 56.637343)"><g><path d="M 3.234375 -19.25 C 5.441406 -22.726562 7.113281 -26.421875 8.25 -30.328125 L 12.703125 -29.375 C 12.523438 -28.582031 12.226562 -27.535156 11.8125 -26.234375 L 16.890625 -26.234375 L 16.890625 -30.4375 L 21.9375 -30.4375 L 21.9375 -26.234375 L 33.125 -26.234375 L 33.125 -22.1875 L 21.9375 -22.1875 L 21.9375 -16.671875 L 35.375 -16.671875 L 35.375 -12.484375 L 25.71875 -12.484375 L 25.71875 -3.09375 C 25.71875 -2.332031 25.847656 -1.878906 26.109375 -1.734375 C 26.367188 -1.585938 27.148438 -1.515625 28.453125 -1.515625 C 29.773438 -1.515625 30.570312 -1.769531 30.84375 -2.28125 C 31.113281 -2.800781 31.332031 -4.59375 31.5 -7.65625 L 35.84375 -7.28125 C 35.75 -5.539062 35.664062 -4.191406 35.59375 -3.234375 C 35.519531 -2.273438 35.351562 -1.375 35.09375 -0.53125 C 34.832031 0.3125 34.578125 0.90625 34.328125 1.25 C 34.085938 1.59375 33.640625 1.898438 32.984375 2.171875 C 32.335938 2.441406 31.6875 2.59375 31.03125 2.625 C 30.382812 2.664062 29.4375 2.6875 28.1875 2.6875 C 26.789062 2.6875 25.6875 2.648438 24.875 2.578125 C 24.070312 2.503906 23.367188 2.378906 22.765625 2.203125 C 22.160156 2.035156 21.726562 1.757812 21.46875 1.375 C 21.21875 1 21.039062 0.550781 20.9375 0.03125 C 20.84375 -0.476562 20.796875 -1.1875 20.796875 -2.09375 L 20.796875 -12.484375 L 17.4375 -12.484375 C 16.601562 -4.328125 12.066406 0.890625 3.828125 3.171875 L 1.953125 -1.0625 C 5.046875 -1.894531 7.535156 -3.3125 9.421875 -5.3125 C 11.304688 -7.3125 12.410156 -9.703125 12.734375 -12.484375 L 2.3125 -12.484375 L 2.3125 -16.671875 L 16.890625 -16.671875 L 16.890625 -22.1875 L 10.234375 -22.1875 C 9.398438 -20.375 8.492188 -18.707031 7.515625 -17.1875 Z M 3.234375 -19.25 "/></g></g></g><g fill="#696969" fill-opacity="1"><g transform="translate(54.261075, 56.637343)"><g><path d="M 7.578125 -3.828125 C 8.460938 -8.390625 9.175781 -13.800781 9.71875 -20.0625 L 13.796875 -19.796875 C 13.359375 -14.378906 12.722656 -9.425781 11.890625 -4.9375 L 13.46875 -5.375 L 14.0625 -1.515625 C 10.007812 -0.160156 6.15625 0.832031 2.5 1.46875 L 1.90625 -2.6875 C 3.4375 -2.9375 5.328125 -3.316406 7.578125 -3.828125 Z M 6 -30.171875 L 10.3125 -30.171875 L 10.3125 -25.140625 L 13.90625 -25.140625 L 13.90625 -21.265625 L 1.953125 -21.265625 L 1.953125 -25.140625 L 6 -25.140625 Z M 2.546875 -19.4375 L 6.328125 -19.875 C 6.921875 -14.257812 7.335938 -9.632812 7.578125 -6 L 3.6875 -5.515625 C 3.4375 -9.785156 3.054688 -14.425781 2.546875 -19.4375 Z M 27.09375 -30.546875 L 27.09375 -23.40625 L 30.734375 -23.40625 L 30.734375 -29.265625 L 34.890625 -29.265625 L 34.890625 -19.734375 L 14.71875 -19.734375 L 14.71875 -29.265625 L 18.921875 -29.265625 L 18.921875 -23.40625 L 22.53125 -23.40625 L 22.53125 -30.546875 Z M 14.25 -13.984375 L 14.25 -17.921875 L 35.734375 -17.921875 L 35.734375 -13.984375 L 27.15625 -13.984375 C 27.0625 -13.492188 26.890625 -12.832031 26.640625 -12 L 35.1875 -12 L 35.1875 -0.03125 C 35.1875 1.21875 34.960938 2.03125 34.515625 2.40625 C 34.078125 2.789062 33.0625 2.984375 31.46875 2.984375 C 30.457031 2.984375 29.570312 2.96875 28.8125 2.9375 L 28.78125 2.0625 L 25.46875 2.0625 L 25.46875 -8.3125 L 23.890625 -8.3125 L 23.890625 2.0625 L 20.28125 2.0625 L 20.28125 -8.3125 L 18.65625 -8.3125 L 18.65625 3.0625 L 14.390625 3.0625 L 14.390625 -12 L 21.71875 -12 C 21.957031 -12.832031 22.128906 -13.492188 22.234375 -13.984375 Z M 30.84375 -8.3125 L 29.109375 -8.3125 L 29.109375 -1.109375 C 29.453125 -1.078125 29.804688 -1.0625 30.171875 -1.0625 C 30.515625 -1.0625 30.710938 -1.097656 30.765625 -1.171875 C 30.816406 -1.242188 30.84375 -1.453125 30.84375 -1.796875 Z M 30.84375 -8.3125 "/></g></g></g><g fill="#696969" fill-opacity="1"><g transform="translate(92.70703, 56.637343)"><g><path d="M 17.953125 -6.734375 L 17.953125 -5.21875 L 29.1875 -5.21875 L 29.1875 -6.734375 Z M 17.953125 -9.640625 L 29.1875 -9.640625 L 29.1875 -11.15625 L 17.953125 -11.15625 Z M 26.53125 -19.0625 L 35.84375 -19.0625 L 35.84375 -15.671875 L 13.578125 -15.671875 L 11.046875 -15.09375 C 10.816406 -16.34375 10.457031 -18.0625 9.96875 -20.25 L 9.96875 3.171875 L 5.34375 3.171875 L 5.34375 -18.734375 C 4.945312 -15.421875 4.488281 -12.378906 3.96875 -9.609375 L 0.65625 -10.3125 C 1.488281 -14.800781 2.117188 -19.175781 2.546875 -23.4375 L 5.34375 -23.109375 L 5.34375 -30.296875 L 9.96875 -30.296875 L 9.96875 -23.84375 L 12.296875 -24.4375 C 12.460938 -23.695312 12.890625 -21.90625 13.578125 -19.0625 L 21.5 -19.0625 L 21.5 -20.46875 L 13.734375 -20.46875 L 13.734375 -23.625 L 21.5 -23.625 L 21.5 -25.03125 L 12.546875 -25.03125 L 12.546875 -28.453125 L 21.5 -28.453125 L 21.5 -30.8125 L 26.53125 -30.8125 L 26.53125 -28.453125 L 35.078125 -28.453125 L 35.078125 -25.03125 L 26.53125 -25.03125 L 26.53125 -23.625 L 34.125 -23.625 L 34.125 -20.46875 L 26.53125 -20.46875 Z M 28.671875 2.984375 C 27.785156 2.984375 26.226562 2.921875 24 2.796875 L 23.890625 -1 C 25.609375 -0.875 26.96875 -0.8125 27.96875 -0.8125 C 28.5625 -0.8125 28.910156 -0.851562 29.015625 -0.9375 C 29.128906 -1.019531 29.1875 -1.285156 29.1875 -1.734375 L 29.1875 -2.28125 L 17.953125 -2.28125 L 17.953125 3.0625 L 13.109375 3.0625 L 13.109375 -14.46875 L 34.1875 -14.46875 L 34.1875 -2.09375 C 34.1875 0.257812 33.90625 1.691406 33.34375 2.203125 C 32.78125 2.722656 31.222656 2.984375 28.671875 2.984375 Z M 28.671875 2.984375 "/></g></g></g><g fill="#696969" fill-opacity="1"><g transform="translate(131.152986, 56.637343)"><g><path d="M 9.234375 -12.328125 L 11.265625 -12.328125 C 11.878906 -14.066406 12.40625 -15.90625 12.84375 -17.84375 L 8.09375 -17.84375 C 8.539062 -16.007812 8.921875 -14.171875 9.234375 -12.328125 Z M 18.1875 -12.328125 L 18.1875 -17.84375 L 16.859375 -17.84375 C 16.367188 -15.8125 15.84375 -13.972656 15.28125 -12.328125 Z M 22.703125 -11.21875 L 22.703125 -1.328125 C 24.078125 -2.253906 25.253906 -3.285156 26.234375 -4.421875 C 24.765625 -6.429688 23.585938 -8.695312 22.703125 -11.21875 Z M 22.703125 -12.546875 L 26.203125 -14.3125 C 26.816406 -12.226562 27.722656 -10.253906 28.921875 -8.390625 C 29.953125 -10.398438 30.675781 -12.632812 31.09375 -15.09375 L 22.703125 -15.09375 Z M 32.390625 -20.203125 C 31.484375 -20.203125 29.175781 -20.265625 25.46875 -20.390625 L 25.359375 -23.921875 C 27.734375 -23.796875 29.335938 -23.734375 30.171875 -23.734375 C 30.492188 -23.734375 30.6875 -23.8125 30.75 -23.96875 C 30.8125 -24.132812 30.878906 -24.71875 30.953125 -25.71875 L 22.703125 -25.71875 L 22.703125 -18.921875 L 35.4375 -18.921875 L 35.4375 -15.09375 C 34.820312 -11.21875 33.609375 -7.769531 31.796875 -4.75 C 33.316406 -3.175781 34.851562 -1.984375 36.40625 -1.171875 L 34.890625 3.09375 C 32.878906 2.132812 30.953125 0.75 29.109375 -1.0625 C 27.804688 0.425781 26.296875 1.773438 24.578125 2.984375 L 22.703125 -0.625 L 22.703125 3.015625 L 18.1875 3.015625 L 18.1875 -8.390625 L 12.625 -8.390625 L 12.625 -5.265625 L 17.375 -5.265625 L 17.375 -1.578125 L 12.625 -1.578125 L 12.625 3.34375 L 7.84375 3.34375 L 7.84375 -1.578125 L 2.796875 -1.578125 L 2.796875 -5.265625 L 7.84375 -5.265625 L 7.84375 -8.390625 L 2.203125 -8.390625 L 2.203125 -12.328125 L 5.296875 -12.328125 C 5.023438 -13.796875 4.644531 -15.632812 4.15625 -17.84375 L 2.03125 -17.84375 L 2.03125 -21.828125 L 7.84375 -21.828125 L 7.84375 -24.65625 L 3.015625 -24.65625 L 3.015625 -28.34375 L 7.84375 -28.34375 L 7.84375 -30.875 L 12.625 -30.875 L 12.625 -28.34375 L 17.265625 -28.34375 L 17.265625 -24.65625 L 12.625 -24.65625 L 12.625 -21.828125 L 18.1875 -21.828125 L 18.1875 -29.546875 L 35.546875 -29.546875 L 35.484375 -27.640625 C 35.335938 -25.234375 35.15625 -23.523438 34.9375 -22.515625 C 34.726562 -21.515625 34.453125 -20.878906 34.109375 -20.609375 C 33.773438 -20.335938 33.203125 -20.203125 32.390625 -20.203125 Z M 32.390625 -20.203125 "/></g></g></g><g fill="#696969" fill-opacity="1"><g transform="translate(169.598938, 56.637343)"><g><path d="M 17 -2.390625 L 17 -6.296875 L 1.953125 -6.296875 L 1.953125 -10.484375 L 17 -10.484375 L 17 -13.140625 L 20.5 -13.140625 C 21.925781 -14.140625 23.140625 -15.035156 24.140625 -15.828125 L 7.515625 -15.828125 L 7.515625 -17.265625 L 3.09375 -17.265625 L 3.09375 -25.875 L 7.796875 -25.875 C 7.554688 -26.363281 6.957031 -27.429688 6 -29.078125 L 10.265625 -30.65625 C 11.222656 -29.039062 12.082031 -27.445312 12.84375 -25.875 L 16.640625 -25.875 C 16.296875 -26.507812 15.628906 -27.695312 14.640625 -29.4375 L 18.953125 -30.984375 C 19.984375 -29.296875 20.890625 -27.59375 21.671875 -25.875 L 24.921875 -25.875 C 25.878906 -27.46875 26.722656 -29.097656 27.453125 -30.765625 L 31.875 -29.703125 C 31.40625 -28.617188 30.753906 -27.34375 29.921875 -25.875 L 34.59375 -25.875 L 34.59375 -17.265625 L 30.171875 -17.265625 L 30.171875 -15.828125 C 28.117188 -13.785156 25.988281 -12.003906 23.78125 -10.484375 L 35.734375 -10.484375 L 35.734375 -6.296875 L 22.046875 -6.296875 L 22.046875 -1.625 C 22.046875 -0.46875 22.007812 0.378906 21.9375 0.921875 C 21.863281 1.460938 21.597656 1.910156 21.140625 2.265625 C 20.691406 2.617188 20.140625 2.828125 19.484375 2.890625 C 18.835938 2.953125 17.773438 2.984375 16.296875 2.984375 C 15.617188 2.984375 13.625 2.921875 10.3125 2.796875 L 10.046875 -1.328125 C 13.066406 -1.203125 14.90625 -1.140625 15.5625 -1.140625 C 16.28125 -1.140625 16.695312 -1.191406 16.8125 -1.296875 C 16.9375 -1.410156 17 -1.773438 17 -2.390625 Z M 29.84375 -22.046875 L 7.84375 -22.046875 L 7.84375 -19.875 L 29.84375 -19.875 Z M 29.84375 -22.046875 "/></g></g></g><g fill="#696969" fill-opacity="1"><g transform="translate(208.04489, 56.637343)"><g><path d="M 22.34375 -6.546875 C 24.28125 -4.023438 28.625 -2.285156 35.375 -1.328125 L 33.71875 2.9375 C 30.5 2.375 27.617188 1.453125 25.078125 0.171875 C 22.535156 -1.097656 20.539062 -2.566406 19.09375 -4.234375 C 17.601562 -2.585938 15.535156 -1.125 12.890625 0.15625 C 10.253906 1.445312 7.28125 2.375 3.96875 2.9375 L 2.3125 -1.328125 C 9.09375 -2.304688 13.4375 -4.046875 15.34375 -6.546875 L 2.3125 -6.546875 L 2.3125 -10.53125 L 16.296875 -10.53125 L 16.296875 -12.625 L 5.921875 -12.625 L 5.921875 -16.296875 L 16.296875 -16.296875 L 16.296875 -18.296875 L 5.5625 -18.296875 L 5.5625 -20.875 L 2.828125 -20.875 L 2.828125 -28.078125 L 16.296875 -28.078125 L 16.296875 -30.8125 L 21.390625 -30.8125 L 21.390625 -28.078125 L 34.859375 -28.078125 L 34.859375 -20.875 L 32.125 -20.875 L 32.125 -18.296875 L 21.390625 -18.296875 L 21.390625 -16.296875 L 31.765625 -16.296875 L 31.765625 -12.625 L 21.390625 -12.625 L 21.390625 -10.53125 L 35.375 -10.53125 L 35.375 -6.546875 Z M 30.296875 -24.1875 L 21.390625 -24.1875 L 21.390625 -22.078125 L 30.296875 -22.078125 Z M 7.390625 -22.078125 L 16.296875 -22.078125 L 16.296875 -24.1875 L 7.390625 -24.1875 Z M 7.390625 -22.078125 "/></g></g></g><g fill="#696969" fill-opacity="1"><g transform="translate(246.490851, 56.637343)"><g><path d="M 10.375 -7.21875 L 27.71875 -7.21875 L 27.71875 -9.28125 L 10.375 -9.28125 Z M 24.984375 -20.796875 C 23.421875 -21.898438 21.65625 -23.039062 19.6875 -24.21875 L 21.15625 -25.953125 L 19.5 -25.953125 L 19.5 -29.625 L 34.671875 -29.625 L 34.671875 -17.515625 C 34.671875 -16.097656 34.429688 -15.21875 33.953125 -14.875 C 33.472656 -14.53125 32.210938 -14.359375 30.171875 -14.359375 C 28.753906 -14.359375 27.125 -14.394531 25.28125 -14.46875 L 25.140625 -16.96875 C 24.085938 -16.519531 22.757812 -16.050781 21.15625 -15.5625 C 20.96875 -14.726562 20.722656 -13.832031 20.421875 -12.875 L 32.640625 -12.875 L 32.640625 2.984375 L 27.71875 2.984375 L 27.71875 1.625 L 10.375 1.625 L 10.375 2.984375 L 5.40625 2.984375 L 5.40625 -12.875 L 15.234375 -12.875 C 15.265625 -12.976562 15.335938 -13.210938 15.453125 -13.578125 C 15.578125 -13.953125 15.664062 -14.234375 15.71875 -14.421875 C 15.320312 -14.378906 14.546875 -14.359375 13.390625 -14.359375 C 11.941406 -14.359375 10.300781 -14.394531 8.46875 -14.46875 L 8.3125 -16.859375 C 6.644531 -16.191406 4.953125 -15.601562 3.234375 -15.09375 L 2.140625 -18.65625 C 4.097656 -19.21875 6.117188 -19.894531 8.203125 -20.6875 C 6.242188 -22.03125 4.46875 -23.179688 2.875 -24.140625 L 4.453125 -25.953125 L 2.71875 -25.953125 L 2.71875 -29.625 L 17.84375 -29.625 L 17.84375 -17.515625 C 17.84375 -16.898438 17.804688 -16.375 17.734375 -15.9375 L 19.90625 -15.71875 L 18.953125 -18.8125 C 21.210938 -19.46875 23.222656 -20.128906 24.984375 -20.796875 Z M 27.71875 -1.90625 L 27.71875 -4.046875 L 10.375 -4.046875 L 10.375 -1.90625 Z M 12.140625 -17.921875 C 12.660156 -17.921875 12.960938 -17.957031 13.046875 -18.03125 C 13.128906 -18.101562 13.171875 -18.335938 13.171875 -18.734375 L 13.171875 -25.953125 L 6.953125 -25.953125 C 8.128906 -25.265625 9.429688 -24.425781 10.859375 -23.4375 L 8.609375 -20.828125 C 9.347656 -21.117188 10.425781 -21.585938 11.84375 -22.234375 L 12.765625 -18.8125 C 12.648438 -18.757812 12.472656 -18.675781 12.234375 -18.5625 C 12.003906 -18.457031 11.785156 -18.351562 11.578125 -18.25 C 11.367188 -18.15625 11.175781 -18.054688 11 -17.953125 C 11.195312 -17.953125 11.425781 -17.945312 11.6875 -17.9375 C 11.945312 -17.925781 12.097656 -17.921875 12.140625 -17.921875 Z M 28.921875 -17.921875 C 29.460938 -17.921875 29.773438 -17.957031 29.859375 -18.03125 C 29.953125 -18.101562 30 -18.335938 30 -18.734375 L 30 -25.953125 L 23.890625 -25.953125 C 25.609375 -24.921875 26.867188 -24.109375 27.671875 -23.515625 L 25.5 -21.015625 C 26.75 -21.503906 27.796875 -21.945312 28.640625 -22.34375 L 29.546875 -18.921875 C 28.910156 -18.597656 28.25 -18.273438 27.5625 -17.953125 C 27.8125 -17.953125 28.085938 -17.945312 28.390625 -17.9375 C 28.703125 -17.925781 28.878906 -17.921875 28.921875 -17.921875 Z M 28.921875 -17.921875 "/></g></g></g><g fill="#696969" fill-opacity="1"><g transform="translate(150.375485, 92.148896)"><g/></g></g><g clip-path="url(#id2)"><path fill="#4ebaa3" d="M 83.144531 103.109375 L 84.835938 98.867188 L 86.074219 95.769531 C 86.210938 95.242188 86.472656 94.792969 86.863281 94.417969 C 87.226562 94.257812 87.601562 94.195312 87.992188 94.234375 C 88.464844 94.234375 89.503906 94.234375 89.84375 94.535156 C 90.179688 94.832031 89.84375 95.726562 89.640625 96.160156 L 87.925781 100.011719 C 86.550781 103.492188 84.925781 106.847656 83.050781 110.078125 C 82.382812 111.035156 81.542969 111.792969 80.527344 112.351562 C 79.515625 112.910156 78.429688 113.214844 77.277344 113.265625 C 77.140625 112.761719 76.667969 111.410156 76.9375 110.972656 C 77.210938 110.535156 78.023438 110.214844 78.472656 109.964844 C 79.464844 109.414062 81.023438 108.015625 81.066406 106.84375 C 80.8125 105.828125 80.429688 104.867188 79.917969 103.957031 L 77.074219 97.699219 C 76.78125 97.054688 75.539062 94.921875 76.21875 94.417969 C 76.511719 94.167969 77.480469 94.234375 77.886719 94.234375 C 79.578125 94.234375 79.398438 94.464844 80.324219 96.527344 Z M 83.144531 103.109375 " fill-opacity="1" fill-rule="nonzero"/></g><path fill="#9b9b9b" d="M 102.136719 94.625 L 104.753906 94.625 L 104.957031 107.167969 L 102.542969 107.167969 L 102.339844 105.242188 C 101.859375 105.929688 101.25 106.472656 100.511719 106.867188 C 100.207031 107.054688 99.886719 107.210938 99.546875 107.332031 C 99.210938 107.453125 98.867188 107.539062 98.511719 107.589844 C 98.15625 107.640625 97.800781 107.652344 97.445312 107.632812 C 97.089844 107.609375 96.738281 107.550781 96.390625 107.457031 C 96.046875 107.363281 95.714844 107.234375 95.394531 107.070312 C 95.074219 106.910156 94.773438 106.714844 94.492188 106.492188 C 94.210938 106.269531 93.953125 106.019531 93.722656 105.742188 C 93.488281 105.464844 93.285156 105.167969 93.113281 104.851562 C 92.644531 103.535156 92.488281 102.183594 92.640625 100.792969 L 92.640625 94.625 L 93.859375 94.625 C 95.078125 94.625 95.234375 94.785156 95.257812 95.976562 L 95.257812 101.570312 C 95.203125 102.558594 95.457031 103.453125 96.023438 104.253906 C 96.277344 104.515625 96.558594 104.734375 96.878906 104.910156 C 97.195312 105.085938 97.53125 105.207031 97.882812 105.28125 C 98.238281 105.351562 98.59375 105.367188 98.953125 105.328125 C 99.3125 105.289062 99.65625 105.199219 99.988281 105.050781 C 100.320312 104.90625 100.625 104.714844 100.898438 104.476562 C 101.171875 104.238281 101.402344 103.960938 101.59375 103.652344 C 101.789062 103.339844 101.929688 103.007812 102.023438 102.652344 C 102.113281 102.300781 102.152344 101.9375 102.136719 101.570312 Z M 102.136719 94.625 " fill-opacity="1" fill-rule="nonzero"/><g clip-path="url(#id3)"><path fill="#9b9b9b" d="M 111.433594 88.617188 L 111.433594 96.550781 C 114.046875 93.640625 118.988281 93.316406 120.636719 97.308594 C 121.121094 98.691406 121.285156 100.113281 121.132812 101.570312 L 121.132812 107.167969 L 118.515625 107.167969 L 118.515625 101 C 118.558594 100.058594 118.390625 99.15625 118.019531 98.292969 C 117.679688 97.722656 117.21875 97.285156 116.640625 96.972656 C 116.058594 96.664062 115.441406 96.527344 114.785156 96.566406 C 114.132812 96.605469 113.535156 96.8125 112.992188 97.1875 C 112.449219 97.5625 112.042969 98.054688 111.769531 98.660156 C 111.425781 99.601562 111.316406 100.574219 111.433594 101.570312 L 111.433594 107.167969 L 108.816406 107.167969 L 108.816406 88.617188 Z M 111.433594 88.617188 " fill-opacity="1" fill-rule="nonzero"/></g><path fill="#9b9b9b" d="M 135.300781 107.167969 L 132.863281 107.167969 L 132.863281 105.8125 C 132.183594 106.390625 131.429688 106.832031 130.59375 107.132812 C 129.757812 107.429688 128.898438 107.574219 128.011719 107.554688 C 125.53125 107.554688 123.929688 106.113281 123.976562 103.703125 C 123.949219 102.753906 124.25 101.929688 124.878906 101.226562 C 126.433594 99.507812 130.15625 99.074219 132.410156 99.050781 C 132.425781 98.648438 132.351562 98.265625 132.1875 97.902344 C 130.878906 95.0625 127.449219 96.664062 125.417969 97.125 L 124.832031 95.589844 C 126.476562 94.578125 128.25 94.191406 130.15625 94.417969 C 130.769531 94.382812 131.371094 94.453125 131.960938 94.625 C 135.140625 95.566406 135.210938 98.179688 135.210938 100.792969 L 135.210938 104.460938 Z M 132.660156 101 L 131.238281 101 C 130.476562 100.96875 129.722656 101.042969 128.984375 101.226562 C 127.605469 101.550781 126.386719 102.375 126.589844 103.886719 C 126.648438 104.382812 126.867188 104.785156 127.246094 105.101562 C 127.464844 105.238281 127.691406 105.347656 127.933594 105.433594 C 128.175781 105.519531 128.421875 105.582031 128.675781 105.613281 C 128.929688 105.644531 129.183594 105.652344 129.4375 105.628906 C 129.691406 105.605469 129.941406 105.558594 130.183594 105.480469 C 130.429688 105.40625 130.660156 105.304688 130.886719 105.179688 C 131.109375 105.050781 131.316406 104.902344 131.507812 104.734375 C 131.699219 104.5625 131.871094 104.371094 132.023438 104.164062 C 132.175781 103.957031 132.304688 103.734375 132.410156 103.5 C 132.644531 102.679688 132.726562 101.847656 132.660156 101 " fill-opacity="1" fill-rule="nonzero"/><path fill="#9b9b9b" d="M 146.601562 96.941406 C 145.179688 96.6875 142.089844 95.382812 141.367188 97.515625 C 141.03125 98.570312 142.316406 99.300781 143.171875 99.625 C 145.113281 100.355469 147.414062 100.863281 147.683594 103.316406 C 147.933594 106.546875 144.863281 107.625 142.042969 107.554688 C 141.1875 107.554688 138.863281 107.28125 138.570312 106.363281 C 138.523438 105.746094 138.675781 105.179688 139.023438 104.667969 C 140.4375 105.449219 141.941406 105.726562 143.535156 105.492188 C 144.617188 105.171875 145.5625 104.1875 144.820312 103.199219 C 143.644531 101.503906 139.925781 101.847656 139.023438 99.324219 C 138.898438 98.882812 138.851562 98.429688 138.886719 97.972656 C 138.871094 97.496094 138.96875 97.046875 139.179688 96.621094 C 140.148438 94.738281 141.976562 94.488281 143.941406 94.488281 C 144.683594 94.488281 146.488281 94.488281 146.960938 95.199219 C 147.4375 95.910156 146.960938 96.550781 146.757812 97.007812 " fill-opacity="1" fill-rule="nonzero"/><g clip-path="url(#id4)"><path fill="#9b9b9b" d="M 153.480469 88.617188 L 153.480469 96.550781 C 156.097656 93.640625 161.039062 93.316406 162.6875 97.214844 C 163.167969 98.597656 163.335938 100.019531 163.183594 101.480469 L 163.183594 107.167969 L 160.566406 107.167969 L 160.566406 101 C 160.605469 100.058594 160.441406 99.15625 160.070312 98.292969 C 159.730469 97.722656 159.269531 97.285156 158.6875 96.972656 C 158.109375 96.664062 157.492188 96.527344 156.835938 96.566406 C 156.179688 96.605469 155.582031 96.8125 155.042969 97.1875 C 154.5 97.5625 154.09375 98.054688 153.820312 98.660156 C 153.476562 99.601562 153.363281 100.574219 153.480469 101.570312 L 153.480469 107.167969 L 150.863281 107.167969 L 150.863281 88.617188 Z M 153.480469 88.617188 " fill-opacity="1" fill-rule="nonzero"/></g><g clip-path="url(#id5)"><path fill="#4ebaa3" d="M 166.816406 88.914062 C 169.613281 88.640625 169.996094 92.058594 167.625 92.585938 C 167.339844 92.625 167.058594 92.601562 166.785156 92.515625 C 166.507812 92.433594 166.261719 92.292969 166.042969 92.101562 C 165.828125 91.90625 165.660156 91.675781 165.542969 91.40625 C 165.425781 91.140625 165.367188 90.859375 165.371094 90.566406 C 165.445312 90.160156 165.625 89.804688 165.90625 89.503906 C 166.1875 89.207031 166.53125 89.007812 166.925781 88.914062 " fill-opacity="1" fill-rule="nonzero"/></g><path fill="#9b9b9b" d="M 165.820312 94.808594 L 168.4375 94.808594 L 168.4375 107.167969 L 165.820312 107.167969 Z M 165.820312 94.808594 " fill-opacity="1" fill-rule="nonzero"/><path fill="#9b9b9b" d="M 172.273438 99.050781 L 179.355469 99.050781 L 179.355469 101.183594 L 172.273438 101.183594 Z M 172.273438 99.050781 " fill-opacity="1" fill-rule="nonzero"/><g clip-path="url(#id6)"><path fill="#9b9b9b" d="M 186.035156 88.042969 L 186.035156 105.242188 L 188.652344 105.242188 L 188.652344 107.167969 L 179.355469 107.167969 L 179.355469 105.242188 L 183.191406 105.242188 L 183.191406 89.96875 L 179.355469 89.96875 L 179.355469 88.042969 Z M 186.035156 88.042969 " fill-opacity="1" fill-rule="nonzero"/></g><path fill="#9b9b9b" d="M 201.804688 107.167969 L 199.367188 107.167969 L 199.367188 105.8125 C 198.691406 106.394531 197.933594 106.835938 197.097656 107.132812 C 196.261719 107.433594 195.402344 107.574219 194.515625 107.554688 C 192.058594 107.554688 190.433594 106.113281 190.480469 103.703125 C 190.453125 102.753906 190.753906 101.929688 191.382812 101.226562 C 192.9375 99.507812 196.726562 99.074219 198.960938 98.933594 C 198.972656 98.539062 198.90625 98.15625 198.757812 97.789062 C 197.425781 94.945312 194 96.550781 191.992188 97.007812 L 191.382812 95.472656 C 193.003906 94.484375 194.757812 94.09375 196.636719 94.304688 C 197.25 94.269531 197.851562 94.335938 198.441406 94.511719 C 201.644531 95.449219 201.691406 98.0625 201.691406 100.679688 L 201.691406 104.347656 Z M 199.164062 101 L 197.832031 101 C 197.070312 100.96875 196.320312 101.042969 195.578125 101.226562 C 194.203125 101.550781 192.984375 102.375 193.1875 103.886719 C 193.242188 104.382812 193.460938 104.785156 193.839844 105.101562 C 194.058594 105.234375 194.285156 105.339844 194.523438 105.425781 C 194.761719 105.507812 195.007812 105.5625 195.257812 105.59375 C 195.507812 105.625 195.761719 105.628906 196.011719 105.605469 C 196.265625 105.582031 196.511719 105.53125 196.75 105.457031 C 196.992188 105.382812 197.222656 105.28125 197.445312 105.15625 C 197.664062 105.03125 197.871094 104.882812 198.0625 104.714844 C 198.25 104.546875 198.421875 104.359375 198.574219 104.15625 C 198.726562 103.949219 198.855469 103.730469 198.960938 103.5 C 199.191406 102.679688 199.273438 101.847656 199.210938 101 " fill-opacity="1" fill-rule="nonzero"/><g clip-path="url(#id7)"><path fill="#9b9b9b" d="M 208.277344 88.617188 L 208.277344 96.550781 C 208.871094 95.773438 209.625 95.214844 210.535156 94.878906 C 211.25 94.535156 212 94.382812 212.789062 94.417969 C 213.652344 94.304688 214.503906 94.375 215.339844 94.621094 C 216.171875 94.867188 216.925781 95.273438 217.59375 95.839844 C 217.972656 96.210938 218.300781 96.625 218.582031 97.074219 C 218.867188 97.523438 219.09375 98 219.265625 98.503906 C 219.441406 99.007812 219.554688 99.523438 219.609375 100.054688 C 219.664062 100.585938 219.65625 101.117188 219.589844 101.648438 C 219.523438 102.175781 219.398438 102.691406 219.214844 103.191406 C 219.027344 103.691406 218.789062 104.160156 218.496094 104.605469 C 218.203125 105.046875 217.867188 105.449219 217.480469 105.8125 C 217.097656 106.175781 216.675781 106.492188 216.21875 106.753906 C 215.269531 107.242188 214.261719 107.507812 213.195312 107.554688 C 212.207031 107.609375 211.257812 107.449219 210.339844 107.074219 C 209.417969 106.703125 208.621094 106.152344 207.941406 105.425781 L 207.941406 107.167969 L 205.683594 107.167969 L 205.683594 88.617188 Z M 211.503906 96.460938 C 211.019531 96.554688 210.566406 96.734375 210.148438 97 C 209.730469 97.261719 209.371094 97.597656 209.070312 97.996094 C 208.773438 98.394531 208.558594 98.835938 208.421875 99.320312 C 208.28125 99.800781 208.234375 100.292969 208.277344 100.792969 C 208.199219 101.433594 208.199219 102.078125 208.277344 102.71875 C 208.402344 103.121094 208.585938 103.492188 208.828125 103.835938 C 209.070312 104.175781 209.363281 104.46875 209.699219 104.714844 C 210.039062 104.957031 210.40625 105.140625 210.804688 105.261719 C 211.203125 105.382812 211.609375 105.4375 212.023438 105.425781 C 213.105469 105.539062 214.113281 105.3125 215.046875 104.734375 C 215.28125 104.519531 215.496094 104.28125 215.6875 104.019531 C 215.878906 103.761719 216.042969 103.488281 216.183594 103.195312 C 216.324219 102.90625 216.4375 102.605469 216.523438 102.292969 C 216.605469 101.980469 216.664062 101.664062 216.6875 101.339844 C 216.714844 101.019531 216.710938 100.695312 216.675781 100.375 C 216.644531 100.050781 216.578125 99.738281 216.488281 99.425781 C 216.394531 99.117188 216.273438 98.816406 216.128906 98.53125 C 215.980469 98.246094 215.808594 97.972656 215.609375 97.71875 C 215.0625 97.15625 214.417969 96.761719 213.671875 96.539062 C 212.925781 96.3125 212.171875 96.289062 211.414062 96.460938 " fill-opacity="1" fill-rule="nonzero"/></g><path fill="#4ebaa3" d="M 221.40625 103.589844 C 224.203125 103.335938 224.589844 106.730469 222.21875 107.28125 C 221.921875 107.339844 221.628906 107.332031 221.335938 107.253906 C 221.042969 107.175781 220.78125 107.039062 220.550781 106.839844 C 220.320312 106.640625 220.144531 106.402344 220.019531 106.121094 C 219.898438 105.839844 219.839844 105.546875 219.851562 105.242188 C 219.921875 104.832031 220.101562 104.476562 220.382812 104.175781 C 220.667969 103.875 221.007812 103.679688 221.40625 103.589844 " fill-opacity="1" fill-rule="nonzero"/><path stroke-linecap="round" transform="matrix(2.974475, 0, 0, 3.041302, 14.503673, 75.169392)" fill="none" stroke-linejoin="miter" d="M 0.500429 -0.000467979 L 90.106586 -0.000467979 " stroke="#61bbd4" stroke-width="1" stroke-opacity="1" stroke-miterlimit="4"/></svg>